:version 1.10
:name ASF
:units
  mass 1
  length 1
  angle deg
:documentation
  ASF file generated by Kaydara
:root
  axis xyz
  order  tx ty tz rx ry rz
  position 0 0 0
  orientation 0 0 0
:bonedata
  begin
    id 1
    name lfemurDummy
    direction 0.61522 -0.761478 0.204097
    length 5.68318
    axis 0 -0 0 xyz
  end
  begin
    id 2
    name lfemur
    direction 0.34202 -0.939693 -5.84747e-008
    length 16.9147
    axis 0 -0 20 xyz
    dof rx ry rz
    limits( -inf , inf )
( -inf , inf )
( -inf , inf )

  end
  begin
    id 3
    name ltibia
    direction 0.34202 -0.939693 1.20839e-009
    length 18.0532
    axis 0 -0 20 xyz
    dof rz ry rx
    limits( -inf , inf )
( -inf , inf )
( -inf , inf )

  end
  begin
    id 4
    name lfoot
    direction 0.0841971 -0.23133 0.969225
    length 5.23822
    axis -90 7.62852e-016 20 xyz
    dof ry rx rz
    limits( -inf , inf )
( -inf , inf )
( -inf , inf )

  end
  begin
    id 5
    name ltoes
    direction 0 0 0
    length 0
    axis 0 0 0 xyz
    dof rz ry rx
    limits( -inf , inf )
( -inf , inf )
( -inf , inf )

  end
  begin
    id 6
    name rfemurDummy
    direction -0.625247 -0.75382 0.202044
    length 5.74091
    axis 0 -0 0 xyz
  end
  begin
    id 7
    name rfemur
    direction -0.34202 -0.939693 -1.47013e-008
    length 16.4922
    axis 0 -0 -20 xyz
    dof rx ry rz
    limits( -inf , inf )
( -inf , inf )
( -inf , inf )

  end
  begin
    id 8
    name rtibia
    direction -0.34202 -0.939693 -7.74345e-010
    length 18.2421
    axis 0 -0 -20 xyz
    dof rz ry rx
    limits( -inf , inf )
( -inf , inf )
( -inf , inf )

  end
  begin
    id 9
    name rfoot
    direction -0.124331 -0.341598 0.931586
    length 5.45787
    axis -90 -7.62852e-016 -20 xyz
    dof ry rx rz
    limits( -inf , inf )
( -inf , inf )
( -inf , inf )

  end
  begin
    id 10
    name rtoes
    direction 0 0 0
    length 0
    axis 0 0 0 xyz
    dof rz ry rx
    limits( -inf , inf )
( -inf , inf )
( -inf , inf )

  end
  begin
    id 11
    name lowerbackDummy
    direction 0 0 0
    length 0
    axis 0 -0 0 xyz
  end
  begin
    id 12
    name lowerback
    direction -0.0218484 0.994884 -0.0986304
    length 4.45607
    axis 0 -0 0 xyz
    dof rx ry rz
    limits( -inf , inf )
( -inf , inf )
( -inf , inf )

  end
  begin
    id 13
    name upperback
    direction -0.00973057 0.999717 -0.0217111
    length 4.47449
    axis 0 -0 0 xyz
    dof rx ry rz
    limits( -inf , inf )
( -inf , inf )
( -inf , inf )

  end
  begin
    id 14
    name thorax
    direction -0.000928171 0.999699 0.0245198
    length 4.50973
    axis 0 -0 0 xyz
    dof rx ry rz
    limits( -inf , inf )
( -inf , inf )
( -inf , inf )

  end
  begin
    id 15
    name rclavicle
    direction -0.9009 0.425937 -0.0834055
    length 7.28587
    axis 0 -0 0 xyz
    dof rx ry rz
    limits( -inf , inf )
( -inf , inf )
( -inf , inf )

  end
  begin
    id 16
    name rhumerus
    direction -1 -2.23604e-007 -1.42637e-007
    length 13.5704
    axis 180 30 90 xyz
    dof rx ry rz
    limits( -inf , inf )
( -inf , inf )
( -inf , inf )

  end
  begin
    id 17
    name rradius
    direction -1 5.68281e-008 -4.4952e-007
    length 8.06782
    axis 180 30 90 xyz
    dof rz ry rx
    limits( -inf , inf )
( -inf , inf )
( -inf , inf )

  end
  begin
    id 18
    name rwrist
    direction -1 1.51393e-007 1.38143e-007
    length 4.03391
    axis -90 -90 0 xyz
    dof rz rx ry
    limits( -inf , inf )
( -inf , inf )
( -inf , inf )

  end
  begin
    id 19
    name rthumb
    direction 0 0 0
    length 0
    axis 0 0 0 xyz
    dof ry rx rz
    limits( -inf , inf )
( -inf , inf )
( -inf , inf )

  end
  begin
    id 20
    name rhand
    direction -1 -3.34077e-007 -5.59631e-007
    length 1.29744
    axis -90 -90 0 xyz
    dof ry rx rz
    limits( -inf , inf )
( -inf , inf )
( -inf , inf )

  end
  begin
    id 21
    name rfingers
    direction 0 0 0
    length 0
    axis 0 0 0 xyz
    dof rz ry rx
    limits( -inf , inf )
( -inf , inf )
( -inf , inf )

  end
  begin
    id 22
    name lclavicle
    direction 0.940017 0.332249 -0.0773232
    length 8.29589
    axis 0 -0 0 xyz
    dof rx ry rz
    limits( -inf , inf )
( -inf , inf )
( -inf , inf )

  end
  begin
    id 23
    name lhumerus
    direction 1 7.41158e-008 -1.44768e-008
    length 12.0042
    axis 180 -30 -90 xyz
    dof rx ry rz
    limits( -inf , inf )
( -inf , inf )
( -inf , inf )

  end
  begin
    id 24
    name lradius
    direction 1 -1.32972e-007 3.10821e-007
    length 8.1902
    axis 180 -30 -90 xyz
    dof rz ry rx
    limits( -inf , inf )
( -inf , inf )
( -inf , inf )

  end
  begin
    id 25
    name lwrist
    direction 1 3.08957e-007 4.01394e-007
    length 4.09509
    axis -90 90 0 xyz
    dof rz rx ry
    limits( -inf , inf )
( -inf , inf )
( -inf , inf )

  end
  begin
    id 26
    name lthumb
    direction 0 0 0
    length 0
    axis 0 0 0 xyz
    dof ry rx rz
    limits( -inf , inf )
( -inf , inf )
( -inf , inf )

  end
  begin
    id 27
    name lhand
    direction 1 -1.64125e-007 -6.99514e-007
    length 1.37229
    axis -90 90 0 xyz
    dof ry rx rz
    limits( -inf , inf )
( -inf , inf )
( -inf , inf )

  end
  begin
    id 28
    name lfingers
    direction 0 0 0
    length 0
    axis 0 0 0 xyz
    dof rz ry rx
    limits( -inf , inf )
( -inf , inf )
( -inf , inf )

  end
  begin
    id 29
    name lowerneck
    direction -0.030798 0.998024 0.0547665
    length 3.93918
    axis 0 -0 0 xyz
    dof rx ry rz
    limits( -inf , inf )
( -inf , inf )
( -inf , inf )

  end
  begin
    id 30
    name upperneck
    direction 0.0531588 0.996611 -0.0627736
    length 3.95491
    axis 0 -0 0 xyz
    dof rx ry rz
    limits( -inf , inf )
( -inf , inf )
( -inf , inf )

  end
  begin
    id 31
    name head
    direction 0 0 0
    length 0
    axis 0 0 0 xyz
    dof rx ry rz
    limits( -inf , inf )
( -inf , inf )
( -inf , inf )

  end
:hierarchy
  begin
    root lfemurDummy rfemurDummy lowerbackDummy
    lfemurDummy lfemur
    lfemur ltibia
    ltibia lfoot
    lfoot ltoes
    rfemurDummy rfemur
    rfemur rtibia
    rtibia rfoot
    rfoot rtoes
    lowerbackDummy lowerback
    lowerback upperback
    upperback thorax
    thorax rclavicle lclavicle lowerneck
    rclavicle rhumerus
    rhumerus rradius
    rradius rwrist
    rwrist rthumb rhand
    rhand rfingers
    lclavicle lhumerus
    lhumerus lradius
    lradius lwrist
    lwrist lthumb lhand
    lhand lfingers
    lowerneck upperneck
    upperneck head
  end

:SAMPLES-PER-SECOND 30
:FULLY-SPECIFIED
:DEGREES
55
root  -8.000133544 33.98088771 8.860021877 26.99700928 -57.90000153 -23.65197754
lowerback  6.115359783 10.4375 -1.109709978
upperback  1.48822999 13.5017004 -7.724309921
thorax  -0.162518993 6.75056982 -8.138460159
lowerneck  1.913709998 -0.09096139669 -7.689390182
upperneck  5.551050186 -1.156839967 20.54870033
head  1.401479959 -0.495314002 7.602449894
lclavicle  0 -9.442270133e-015 7.951389973e-016
lhumerus  -18.28100014 -32.13830185 87.53510284
lradius  1.856607156e-031 -3.003640109e-031 121.7210007
lwrist  -1.412450015e-030 -0 11.11460018
lhand  -1.496451383e-031 -27.76390076 20.11240005
lfingers  90 7.125020027 -90
lthumb  89.89689403 5.08795885 91.16245106
rclavicle  0 -9.442270133e-015 7.951389973e-016
rhumerus  44.88740158 -5.217989922 -54.52859879
rradius  1.614305629e-031 3.140519284e-031 62.79570007
rwrist  7.062250077e-031 3.531125038e-031 -44.15940094
rhand  -7.920061211e-032 -33.2840004 9.303460121
rfingers  -90 -7.125020027 -90
rthumb  -92.93752616 -24.25625642 -97.11982154
rfemur  15.24849987 -0.03035210073 27.51950073
rtibia  -0 0 40.01570129
rfoot  -0 -29.8227005 -26.64570045
rtoes  5.373923086 19.29304026 -105.8922705
lfemur  -63.10480118 3.233500004 2.533370018
ltibia  -0 0 75.82299805
lfoot  -0 -12.76130009 -10.83920002
ltoes  -4.250644065 -19.5611806 -102.515957
56
root  -8.003244625 34.17577668 8.901933235 27.72399902 -59.18800354 -24.22497559
lowerback  5.576869965 10.50430012 -1.654700041
upperback  1.510360003 13.56849957 -8.124389648
thorax  0.1394229978 6.781589985 -8.163649559
lowerneck  1.971359968 0.296171993 -7.004010201
upperneck  5.831610203 -0.6936579943 20.9022007
head  1.400279999 -0.2465649992 7.600580215
lclavicle  0 -9.442270133e-015 7.951389973e-016
lhumerus  -21.46360016 -29.79080009 88.32170105
lradius  1.865825033e-031 -2.997922778e-031 121.8970032
lwrist  -7.062250077e-031 -0 13.75
lhand  -1.496451383e-031 -27.76390076 20.11240005
lfingers  90 7.125020027 -90
lthumb  89.89689403 5.08795885 91.16245106
rclavicle  0 -9.442270133e-015 7.951389973e-016
rhumerus  43.70669937 -3.022809982 -54.3044014
rradius  1.557967099e-031 3.168845619e-031 63.81890106
rwrist  0 7.062250077e-031 -44.30989838
rhand  -7.920061211e-032 -33.2840004 9.303460121
rfingers  -90 -7.125020027 -90
rthumb  -92.93752616 -24.25625642 -97.11982154
rfemur  14.64239979 0.5396559834 26.92959976
rtibia  -0 0 40.19440079
rfoot  -0 -28.70929909 -27.16060066
rtoes  5.373923086 19.29304026 -105.8922705
lfemur  -62.12039948 3.635139942 2.47164011
ltibia  -0 0 75.10030365
lfoot  -0 -12.6473999 -10.01350021
ltoes  -4.250644065 -19.5611806 -102.515957
57
root  -8.013777845 34.42110978 8.928377797 27.625 -60.91300201 -24.30200195
lowerback  5.436369896 10.62279987 -2.754290104
upperback  1.590860009 13.63539982 -8.501119614
thorax  0.1503850073 6.792429924 -7.964079857
lowerneck  2.205709934 0.7270659804 -6.502940178
upperneck  6.169280052 -0.1827609986 21.22019958
head  1.378640056 0.01548110042 7.619949818
lclavicle  0 -9.442270133e-015 7.951389973e-016
lhumerus  -24.77700043 -27.0904007 88.97100067
lradius  1.88201784e-031 -2.987783943e-031 122.2070007
lwrist  -7.062250077e-031 -0 16.88380051
lhand  -1.496451383e-031 -27.76390076 20.11240005
lfingers  90 7.125020027 -90
lthumb  89.89689403 5.08795885 91.16245106
rclavicle  0 -9.442270133e-015 7.951389973e-016
rhumerus  42.25730133 -0.6116150022 -54.51879883
rradius  1.493004835e-031 3.199965718e-031 64.98770142
rwrist  0 7.062250077e-031 -44.39360046
rhand  -7.920061211e-032 -33.2840004 9.303460121
rfingers  -90 -7.125020027 -90
rthumb  -92.93752616 -24.25625642 -97.11982154
rfemur  14.43109989 1.168179989 25.7894001
rtibia  -0 0 40.32929993
rfoot  -0 -27.70240021 -27.11919975
rtoes  5.373923086 19.29304026 -105.8922705
lfemur  -60.36880112 3.971210003 2.00654006
ltibia  -0 0 74.10720062
lfoot  -0 -12.50689983 -9.100410461
ltoes  -4.250644065 -19.5611806 -102.515957
58
root  -8.021688837 34.72244383 8.939444174 26.95397949 -62.88500214 -23.7869873
lowerback  5.308849812 10.77299976 -4.43434
upperback  1.668599963 13.69750023 -8.857689857
thorax  0.009750409983 6.783410072 -7.46337986
lowerneck  2.631449938 1.199329972 -6.05656004
upperneck  6.499700069 0.3894880116 21.44759941
head  1.314030051 0.2950159907 7.61634016
lclavicle  0 -9.442270133e-015 7.951389973e-016
lhumerus  -28.02160072 -24.1583004 89.53980255
lradius  1.896128279e-031 -2.978849037e-031 122.4779968
lwrist  -1.412450015e-030 -0 20.25440025
lhand  -1.496451383e-031 -27.76390076 20.11240005
lfingers  90 7.125020027 -90
lthumb  89.89689403 5.08795885 91.16245106
rclavicle  0 -9.442270133e-015 7.951389973e-016
rhumerus  40.51350021 1.888370037 -55.24969864
rradius  1.424106016e-031 3.231217432e-031 66.21530151
rwrist  1.412450015e-030 1.765562519e-031 -44.3742981
rhand  -7.920061211e-032 -33.2840004 9.303460121
rfingers  -90 -7.125020027 -90
rthumb  -92.93752616 -24.25625642 -97.11982154
rfemur  14.19659996 1.644619942 24.12770081
rtibia  -0 0 40.34529877
rfoot  -0 -26.54210091 -26.91900063
rtoes  5.373923086 19.29304026 -105.8922705
lfemur  -58.38700104 4.213850021 1.219930053
ltibia  -0 0 72.91970062
lfoot  -0 -12.13829994 -8.237930298
ltoes  -4.250644065 -19.5611806 -102.515957
59
root  -8.018577756 35.02622289 8.940288964 27.51000977 -64.38999939 -24.3449707
lowerback  4.871829987 10.75640011 -5.537650108
upperback  1.663969994 13.62419987 -9.084819794
thorax  0.0395600982 6.718920231 -7.060520172
lowerneck  2.928339958 1.693750024 -5.650740147
upperneck  6.947710037 0.9707430005 21.71500015
head  1.304720044 0.5911890268 7.63285017
lclavicle  0 -9.442270133e-015 7.951389973e-016
lhumerus  -31.06270027 -21.0814991 89.76439667
lradius  1.909211898e-031 -2.970480427e-031 122.7300034
lwrist  -7.062250077e-031 -1.324171889e-031 23.62969971
lhand  -1.496451383e-031 -27.76390076 20.11240005
lfingers  90 7.125020027 -90
lthumb  89.89689403 5.08795885 91.16245106
rclavicle  0 -9.442270133e-015 7.951389973e-016
rhumerus  38.49100113 4.435279846 -56.57479858
rradius  1.355908143e-031 3.260422847e-031 67.4190979
rwrist  7.062250077e-031 3.531125038e-031 -44.22750092
rhand  -7.920061211e-032 -33.2840004 9.303460121
rfingers  -90 -7.125020027 -90
rthumb  -92.93752616 -24.25625642 -97.11982154
rfemur  13.6541996 1.728469968 23.07729912
rtibia  -0 0 40.20780182
rfoot  -0 -25.01989937 -26.90369987
rtoes  5.373923086 19.29304026 -105.8922705
lfemur  -56.86840057 4.494480133 1.179039955
ltibia  -0 0 71.71320343
lfoot  -0 -11.49110031 -7.77903986
ltoes  -4.250644065 -19.5611806 -102.515957
60
root  -7.987888967 35.31133396 8.918310901 29.81799316 -65.42099762 -26.82702637
lowerback  4.579780102 10.58520031 -5.610660076
upperback  1.58209002 13.40670013 -9.209119797
thorax  0.1087030023 6.604609966 -7.09431982
lowerneck  3.185750008 2.256269932 -5.229549885
upperneck  7.393959999 1.637879968 22.10849953
head  1.288319945 0.9323499799 7.685550213
lclavicle  0 -9.442270133e-015 7.951389973e-016
lhumerus  -33.87649918 -17.79770088 89.4068985
lradius  1.914289858e-031 -2.967210538e-031 122.8280029
lwrist  -1.412450015e-030 -8.827812596e-032 26.95929909
lhand  -1.496451383e-031 -27.76390076 20.11240005
lfingers  90 7.125020027 -90
lthumb  89.89689403 5.08795885 91.16245106
rclavicle  0 -9.442270133e-015 7.951389973e-016
rhumerus  36.15650177 6.873569965 -58.58060074
rradius  1.286761469e-031 3.288326164e-031 68.6289978
rwrist  7.062250077e-031 3.531125038e-031 -44.23770142
rhand  -7.920061211e-032 -33.2840004 9.303460121
rfingers  -90 -7.125020027 -90
rthumb  -92.93752616 -24.25625642 -97.11982154
rfemur  13.15219975 1.702039957 23.07369995
rtibia  -0 0 39.80039978
rfoot  -0 -23.48189926 -26.9885006
rtoes  5.373923086 19.29304026 -105.8922705
lfemur  -55.51300049 4.968840122 2.188359976
ltibia  -0 0 70.542099
lfoot  -0 -11.02350044 -7.574769974
ltoes  -4.250644065 -19.5611806 -102.515957
61
root  -7.952600014 35.61222347 8.889377774 32.72302246 -66.69999695 -30.45898438
lowerback  4.688570023 10.56610012 -5.551720142
upperback  1.652719975 13.36100006 -9.226429939
thorax  0.1367540061 6.57528019 -7.154329777
lowerneck  3.340379953 2.840059996 -4.927770138
upperneck  7.746880054 2.348540068 22.53389931
head  1.254379988 1.293869972 7.766679764
lclavicle  0 -9.442270133e-015 7.951389973e-016
lhumerus  -36.35599899 -14.40769958 88.70230103
lradius  1.910300305e-031 -2.969780595e-031 122.7509995
lwrist  -1.412450015e-030 3.91734184e-031 30.53610039
lhand  -1.496451383e-031 -27.76390076 20.11240005
lfingers  90 7.125020027 -90
lthumb  89.89689403 5.08795885 91.16245106
rclavicle  0 -9.442270133e-015 7.951389973e-016
rhumerus  33.68719864 8.978440285 -60.98540115
rradius  1.220881604e-031 3.313350592e-031 69.77249908
rwrist  7.062250077e-031 5.296687558e-031 -44.61289978
rhand  -7.920061211e-032 -33.2840004 9.303460121
rfingers  -90 -7.125020027 -90
rthumb  -92.93752616 -24.25625642 -97.11982154
rfemur  13.12709999 1.983309984 23.24580002
rtibia  -0 0 39.33660126
rfoot  -0 -22.12080002 -26.90649986
rtoes  5.373923086 19.29304026 -105.8922705
lfemur  -53.40100098 5.664840221 3.460949898
ltibia  -0 0 69.30169678
lfoot  -0 -10.64560032 -7.342740059
ltoes  -4.250644065 -19.5611806 -102.515957
